<?xml version="1.0" standalone="no"?>
<!DOCTYPE svg PUBLIC "-//W3C//DTD SVG 1.1//EN"
  "http://www.w3.org/Graphics/SVG/1.1/DTD/svg11.dtd">
<svg width="153.31219482421875mm" height="39.965886116027825mm" viewBox="-93.90609741210938 -16.85794353485107 153.31219482421875 39.965886116027825" xmlns="http://www.w3.org/2000/svg" version="1.1">
	<title>svgOutput</title>
	<desc>made with tinkercad</desc>
<path d="M -89.63800048828125 -15.85794353485107 L -87 -15.85794353485107 L -81.91999816894531 -15.85794353485107 L -74.86199951171875 -15.85794353485107 L -74.60163116455078 -15.8034553527832 L -74.0739974975586 -15.694557189941403 L -74.07109069824219 -15.692431449890133 L -73.72799682617188 -15.441508293151852 L -73.5011978149414 -15.275637626647946 L -73.39099884033203 -15.195079803466793 L -73.39094543457031 -15.194999694824215 L -73.09934997558594 -14.775958061218258 L -73.09701538085938 -14.772603034973141 L -73.09577941894531 -14.770454406738278 L -72.81300354003906 -14.280152320861813 L -72.81206512451172 -14.277384757995602 L -72.54132843017578 -13.47413349151611 L -72.34100341796875 -12.877987861633297 L -72.22062683105469 -12.28800010681152 L -72.12213134765625 -11.80523109436035 L -72.0388412475586 -11.286695480346678 L -71.9729995727539 -10.875417709350584 L -71.88412475585938 -9.927371978759764 L -71.79906463623047 -9.020164489746092 L -71.79903411865234 -9.01971912384033 L -71.74301147460938 -8.19200038909912 L -71.70999908447266 -7.704245090484617 L -71.70996856689453 -7.703258037567137 L -71.68048858642578 -6.840774536132811 L -71.6642074584961 -6.3628334999084455 L -71.6358413696289 -4.974686622619628 L -71.61134338378906 -3.7869577407836905 L -71.6112289428711 -3.770590066909789 L -71.59917449951172 -2.0120587348937984 L -71.59390258789062 -1.2499999999999996 L -71.59392547607422 -1.2462528944015498 L -71.59917449951172 -0.4879411756992338 L -71.60252380371094 1.1102230246251565e-16 L -71.61134338378906 1.2869577407836914 L -71.61151885986328 1.2957310676574707 L -71.6358413696289 2.4746866226196285 L -71.6642074584961 3.8628332614898673 L -71.66486358642578 3.882159709930419 L -71.68048858642578 4.340774536132812 L -71.70996856689453 5.203258037567138 L -71.70999908447266 5.204245090484618 L -71.79906463623047 6.520164489746092 L -71.7992172241211 6.521810531616209 L -71.88412475585938 7.427372455596922 L -71.95580291748047 8.19200038909912 L -71.9729995727539 8.375417709350584 L -71.97303009033203 8.375600814819334 L -72.0388412475586 8.786695480346678 L -72.12213134765625 9.30523109436035 L -72.34100341796875 10.377987861633299 L -72.54132843017578 10.974133491516112 L -72.81300354003906 11.780152320861815 L -73.09701538085938 12.272603034973141 L -73.10773468017578 12.28800010681152 L -73.39099884033203 12.695079803466793 L -73.5011978149414 12.775637626647946 L -73.72799682617188 12.941508293151852 L -74.0739974975586 13.194557189941403 L -74.07439422607422 13.194638252258297 L -74.60163116455078 13.3034553527832 L -74.86199951171875 13.35794353485107 L -74.86563110351562 13.35794353485107 L -81.91999816894531 13.35794353485107 L -87 13.35794353485107 L -89.63800048828125 13.35794353485107 L -89.89836883544922 13.3034553527832 L -90.11199951171875 13.25936412811279 L -90.4260025024414 13.194557189941403 L -90.42890930175781 13.192431449890133 L -90.9988021850586 12.775637626647946 L -91.10900115966797 12.695079803466793 L -91.10905456542969 12.694999694824215 L -91.39226531982422 12.28800010681152 L -91.40065002441406 12.275958061218258 L -91.40298461914062 12.272603034973141 L -91.68699645996094 11.780152320861815 L -91.68793487548828 11.777384757995604 L -91.95867156982422 10.974133491516112 L -92.15899658203125 10.377987861633299 L -92.37786865234375 9.30523109436035 L -92.4611587524414 8.786695480346678 L -92.52696990966797 8.375600814819334 L -92.5270004272461 8.375417709350584 L -92.54419708251953 8.19200038909912 L -92.61587524414062 7.427372455596922 L -92.7007827758789 6.521810531616209 L -92.70093536376953 6.520164489746092 L -92.79000091552734 5.204245090484618 L -92.79003143310547 5.203258037567138 L -92.81951141357422 4.340774536132812 L -92.83513641357422 3.882159709930419 L -92.8357925415039 3.8628332614898673 L -92.8641586303711 2.4746866226196285 L -92.88848114013672 1.2957310676574707 L -92.88865661621094 1.2869577407836914 L -92.89747619628906 1.1102230246251565e-16 L -92.90082550048828 -0.4879411756992338 L -92.90607452392578 -1.2462528944015498 L -92.90609741210938 -1.2499999999999996 L -92.90082550048828 -2.0120587348937984 L -92.8887710571289 -3.770590066909789 L -92.88865661621094 -3.7869577407836905 L -92.8641586303711 -4.974686622619628 L -92.8357925415039 -6.3628334999084455 L -92.81951141357422 -6.840774536132811 L -92.79003143310547 -7.703258037567137 L -92.79000091552734 -7.704245090484617 L -92.75698852539062 -8.19200038909912 L -92.70096588134766 -9.01971912384033 L -92.70093536376953 -9.020164489746092 L -92.61587524414062 -9.927371978759764 L -92.5270004272461 -10.875417709350584 L -92.4611587524414 -11.286695480346678 L -92.37786865234375 -11.80523109436035 L -92.27937316894531 -12.28800010681152 L -92.15899658203125 -12.877987861633297 L -91.95867156982422 -13.47413349151611 L -91.68699645996094 -14.280152320861813 L -91.40298461914062 -14.772603034973141 L -91.10905456542969 -15.194999694824215 L -91.10900115966797 -15.195079803466793 L -90.9988021850586 -15.275637626647946 L -90.4260025024414 -15.694557189941403 L -90.11199951171875 -15.75936412811279 L -89.89836883544922 -15.8034553527832 L -89.63800048828125 -15.85794353485107 M 55.13800048828125 22.107942581176754 L 55.13437271118164 22.107942581176754 L 49.152000427246094 22.107942581176754 L 40.959999084472656 22.107942581176754 L 40.36199951171875 22.107942581176754 L 40.101627349853516 22.0534553527832 L 39.57400131225586 21.944557189941403 L 39.57109451293945 21.942430496215817 L 39.00120162963867 21.52563667297363 L 38.89099884033203 21.445079803466793 L 38.89094543457031 21.444999694824215 L 38.59934997558594 21.02595710754394 L 38.597015380859375 21.022603988647457 L 38.3129997253418 20.53015327453613 L 38.312068939208984 20.527383804321286 L 38.29609680175781 20.479999542236325 L 38.041324615478516 19.724134445190426 L 37.840999603271484 19.12798690795898 L 37.622127532958984 18.055231094360348 L 37.538841247558594 17.536695480346676 L 37.47303009033203 17.125600814819332 L 37.472999572753906 17.125417709350582 L 37.45852279663086 16.971000671386715 L 37.40349578857422 16.38400077819824 L 37.384124755859375 16.177371978759762 L 37.29922103881836 15.271810531616207 L 37.29906463623047 15.27016448974609 L 37.209999084472656 13.954245567321774 L 37.209964752197266 13.953258514404293 L 37.18049240112305 13.090774536132809 L 37.16486740112305 12.632159233093258 L 37.164207458496094 12.612833023071286 L 37.13583755493164 11.224686622619627 L 37.11152267456055 10.04573059082031 L 37.1113395690918 10.03695774078369 L 37.108238220214844 9.58399963378906 L 37.099178314208984 8.262059211730955 L 37.098690032958984 8.19200038909912 L 37.093929290771484 7.503746986389158 L 37.093902587890625 7.499999999999998 L 37.099178314208984 6.737941265106199 L 37.111228942871094 4.97940969467163 L 37.1113395690918 4.963042259216308 L 37.13583755493164 3.77531337738037 L 37.164207458496094 2.3871667385101314 L 37.18049240112305 1.909225225448608 L 37.209964752197266 1.0467417240142822 L 37.209999084472656 1.0457549095153809 L 37.28078079223633 1.1102230246251565e-16 L 37.299034118652344 -0.2697195112705229 L 37.29906463623047 -0.2701644301414488 L 37.384124755859375 -1.1773724555969234 L 37.472999572753906 -2.1254177093505855 L 37.538841247558594 -2.5366952419281 L 37.622127532958984 -3.0552310943603507 L 37.83447265625 -4.09600019454956 L 37.840999603271484 -4.127987384796142 L 38.041324615478516 -4.724133491516112 L 38.3129997253418 -5.5301523208618155 L 38.597015380859375 -6.022603511810301 L 38.89094543457031 -6.444999694824217 L 38.89099884033203 -6.445080280303953 L 39.00120162963867 -6.525637149810789 L 39.57109451293945 -6.942431449890135 L 39.57400131225586 -6.9445571899414045 L 40.101627349853516 -7.0534558296203596 L 40.36199951171875 -7.107943534851072 L 40.959999084472656 -7.107943534851072 L 49.152000427246094 -7.107943534851072 L 55.13800048828125 -7.107943534851072 L 55.398372650146484 -7.0534558296203596 L 55.92599868774414 -6.9445571899414045 L 55.92890548706055 -6.942431449890135 L 56.49879837036133 -6.525637149810789 L 56.60900115966797 -6.445080280303953 L 56.60905456542969 -6.444999694824217 L 56.90065002441406 -6.025957584381102 L 56.902984619140625 -6.022603511810301 L 56.90422058105469 -6.0204544067382795 L 57.1870002746582 -5.5301523208618155 L 57.187931060791016 -5.527384757995605 L 57.34400177001953 -5.064356327056884 L 57.458675384521484 -4.724133491516112 L 57.659000396728516 -4.127987384796142 L 57.66552734375 -4.09600019454956 L 57.877872467041016 -3.0552310943603507 L 57.961158752441406 -2.5366952419281 L 58.027000427246094 -2.1254177093505855 L 58.115875244140625 -1.1773724555969234 L 58.20093536376953 -0.2701644301414488 L 58.200965881347656 -0.2697195112705229 L 58.21921920776367 1.1102230246251565e-16 L 58.290000915527344 1.0457549095153809 L 58.290035247802734 1.0467417240142822 L 58.31950759887695 1.909225225448608 L 58.335792541503906 2.3871667385101314 L 58.36416244506836 3.77531337738037 L 58.3886604309082 4.963042259216308 L 58.388771057128906 4.97940969467163 L 58.400821685791016 6.737941265106199 L 58.406097412109375 7.499999999999998 L 58.406070709228516 7.503746986389158 L 58.401309967041016 8.19200038909912 L 58.400821685791016 8.262059211730955 L 58.391761779785156 9.58399963378906 L 58.3886604309082 10.03695774078369 L 58.38847732543945 10.04573059082031 L 58.36416244506836 11.224686622619627 L 58.335792541503906 12.612833023071286 L 58.33513259887695 12.632159233093258 L 58.31950759887695 13.090774536132809 L 58.290035247802734 13.953258514404293 L 58.290000915527344 13.954245567321774 L 58.20093536376953 15.27016448974609 L 58.20077896118164 15.271810531616207 L 58.115875244140625 16.177371978759762 L 58.09650421142578 16.38400077819824 L 58.04147720336914 16.971000671386715 L 58.027000427246094 17.125417709350582 L 58.02696990966797 17.125600814819332 L 57.961158752441406 17.536695480346676 L 57.877872467041016 18.055231094360348 L 57.659000396728516 19.12798690795898 L 57.458675384521484 19.724134445190426 L 57.34400177001953 20.064355850219723 L 57.1870002746582 20.53015327453613 L 56.902984619140625 21.022603988647457 L 56.60900115966797 21.445079803466793 L 56.49879837036133 21.52563667297363 L 55.92599868774414 21.944557189941403 L 55.92560577392578 21.944639205932614 L 55.398372650146484 22.0534553527832 L 55.13800048828125 22.107942581176754 z" fill="none" stroke="rgb(255,0,0)" stroke-width="0.001mm" />
</svg>